<svg version="1.2" xmlns="http://www.w3.org/2000/svg" viewBox="0 0 1500 1000" width="1500" height="1000">
	<title>6236631-ai</title>
	<style>
		.s0 { fill: #ffffff } 
		.s1 { fill: #271e49 } 
		.s2 { fill: #2a59ff } 
		.s3 { fill: none;stroke: #ffffff;stroke-width: 2 } 
		.s4 { fill: #f9d60c } 
		.s5 { fill: #ff3162 } 
		.s6 { fill: #e5e5e5 } 
		.s7 { fill: none;stroke: #271e49;stroke-width: 2 } 
		.s8 { fill: #33e2b8 } 
		.s9 { fill: none;stroke: #271e49;stroke-width: 2;stroke-dasharray: 16 } 
	</style>
	<g id="OBJECT">
		<g id="&lt;Group&gt;">
			<g id="&lt;Group&gt;">
				<g id="&lt;Group&gt;">
					<g id="&lt;Group&gt;">
						<path id="&lt;Path&gt;" class="s1" d="m195.7 689.8v-112.3h150.9v112.3z"/>
					</g>
					<g id="&lt;Group&gt;">
						<g id="&lt;Group&gt;">
							<g id="&lt;Group&gt;">
								<path id="&lt;Path&gt;" class="s2" d="m103.9 689.8v-112.3h91.8v112.3z"/>
							</g>
						</g>
						<g id="&lt;Group&gt;">
							<path id="&lt;Path&gt;" class="s3" d=""/>
						</g>
					</g>
					<g id="&lt;Group&gt;">
						<path id="&lt;Path&gt;" class="s3" d="m118.2 585.5v96.3"/>
						<path id="&lt;Path&gt;" class="s3" d="m134 585.5v96.3"/>
						<path id="&lt;Path&gt;" class="s3" d="m149.8 585.5v96.3"/>
						<path id="&lt;Path&gt;" class="s3" d="m165.7 585.5v96.3"/>
						<path id="&lt;Path&gt;" class="s3" d="m181.5 585.5v96.3"/>
					</g>
				</g>
				<g id="&lt;Group&gt;">
					<g id="&lt;Group&gt;">
						<path id="&lt;Path&gt;" class="s1" d="m317 689.8v-112.3h150.9v112.3z"/>
					</g>
					<g id="&lt;Group&gt;">
						<g id="&lt;Group&gt;">
							<g id="&lt;Group&gt;">
								<g id="&lt;Group&gt;">
									<path id="&lt;Path&gt;" class="s4" d="m225.3 689.8l-0.1-112.3h91.8v112.3z"/>
								</g>
							</g>
						</g>
						<g id="&lt;Group&gt;">
							<path id="&lt;Path&gt;" class="s3" d=""/>
						</g>
					</g>
					<g id="&lt;Group&gt;">
						<path id="&lt;Path&gt;" class="s3" d="m239.5 585.5v96.3"/>
						<path id="&lt;Path&gt;" class="s3" d="m255.3 585.5v96.3"/>
						<path id="&lt;Path&gt;" class="s3" d="m271.1 585.5v96.3"/>
						<path id="&lt;Path&gt;" class="s3" d="m287 585.5v96.3"/>
						<path id="&lt;Path&gt;" class="s3" d="m302.8 585.5v96.3"/>
					</g>
				</g>
				<g id="&lt;Group&gt;">
					<g id="&lt;Group&gt;">
						<path id="&lt;Path&gt;" class="s1" d="m270.3 577.5v-112.4h150.8v112.4z"/>
					</g>
					<g id="&lt;Group&gt;">
						<g id="&lt;Group&gt;">
							<g id="&lt;Group&gt;">
								<g id="&lt;Group&gt;">
									<path id="&lt;Path&gt;" class="s4" d="m178.5 577.5v-112.4h91.8v112.4z"/>
								</g>
							</g>
						</g>
						<g id="&lt;Group&gt;">
							<path id="&lt;Path&gt;" class="s3" d=""/>
						</g>
					</g>
					<g id="&lt;Group&gt;">
						<path id="&lt;Path&gt;" class="s3" d="m192.8 473.1v96.4"/>
						<path id="&lt;Path&gt;" class="s3" d="m208.6 473.1v96.4"/>
						<path id="&lt;Path&gt;" class="s3" d="m224.4 473.1v96.4"/>
						<path id="&lt;Path&gt;" class="s3" d="m240.2 473.1v96.4"/>
						<path id="&lt;Path&gt;" class="s3" d="m256.1 473.1v96.4"/>
					</g>
				</g>
				<g id="&lt;Group&gt;">
					<g id="&lt;Group&gt;">
						<path id="&lt;Path&gt;" class="s1" d="m383.1 577.5v-112.4h150.9v112.4z"/>
					</g>
					<g id="&lt;Group&gt;">
						<g id="&lt;Group&gt;">
							<g id="&lt;Group&gt;">
								<path id="&lt;Path&gt;" class="s5" d="m291.4 577.5v-112.4h91.7v112.4z"/>
							</g>
						</g>
						<g id="&lt;Group&gt;">
							<path id="&lt;Path&gt;" class="s3" d=""/>
						</g>
					</g>
					<g id="&lt;Group&gt;">
						<path id="&lt;Path&gt;" class="s3" d="m305.6 473.1v96.4"/>
						<path id="&lt;Path&gt;" class="s3" d="m321.4 473.1v96.4"/>
						<path id="&lt;Path&gt;" class="s3" d="m337.3 473.1v96.4"/>
						<path id="&lt;Path&gt;" class="s3" d="m353.1 473.1v96.4"/>
						<path id="&lt;Path&gt;" class="s3" d="m368.9 473.1v96.4"/>
					</g>
				</g>
				<g id="&lt;Group&gt;">
					<g id="&lt;Group&gt;">
						<path id="&lt;Path&gt;" class="s1" d="m553 689.3v-112.3h150.8v112.3z"/>
					</g>
					<g id="&lt;Group&gt;">
						<g id="&lt;Group&gt;">
							<path id="&lt;Path&gt;" class="s5" d="m461.2 689.3v-112.3h91.8v112.3z"/>
						</g>
						<g id="&lt;Group&gt;">
							<path id="&lt;Path&gt;" class="s3" d=""/>
						</g>
					</g>
					<g id="&lt;Group&gt;">
						<path id="&lt;Path&gt;" class="s3" d="m475.5 585v96.3"/>
						<path id="&lt;Path&gt;" class="s3" d="m491.3 585v96.3"/>
						<path id="&lt;Path&gt;" class="s3" d="m507.1 585v96.3"/>
						<path id="&lt;Path&gt;" class="s3" d="m522.9 585v96.3"/>
						<path id="&lt;Path&gt;" class="s3" d="m538.8 585v96.3"/>
					</g>
				</g>
				<g id="&lt;Group&gt;">
					<g id="&lt;Group&gt;">
						<path id="&lt;Path&gt;" class="s1" d="m656.8 689.3v-112.3h150.8v112.3z"/>
					</g>
					<g id="&lt;Group&gt;">
						<g id="&lt;Group&gt;">
							<path id="&lt;Path&gt;" class="s5" d="m565 689.3v-112.3h91.8v112.3z"/>
						</g>
						<g id="&lt;Group&gt;">
							<path id="&lt;Path&gt;" class="s3" d=""/>
						</g>
					</g>
					<g id="&lt;Group&gt;">
						<path id="&lt;Path&gt;" class="s3" d="m579.2 585v96.3"/>
						<path id="&lt;Path&gt;" class="s3" d="m595 585v96.3"/>
						<path id="&lt;Path&gt;" class="s3" d="m610.9 585v96.3"/>
						<path id="&lt;Path&gt;" class="s3" d="m626.7 585v96.3"/>
						<path id="&lt;Path&gt;" class="s3" d="m642.5 585v96.3"/>
					</g>
				</g>
				<g id="&lt;Group&gt;">
					<g id="&lt;Group&gt;">
						<path id="&lt;Path&gt;" class="s1" d="m760.5 689.3v-112.3h150.8v112.3z"/>
					</g>
					<g id="&lt;Group&gt;">
						<g id="&lt;Group&gt;">
							<path id="&lt;Path&gt;" class="s5" d="m668.7 689.3v-112.3h91.8v112.3z"/>
						</g>
						<g id="&lt;Group&gt;">
							<path id="&lt;Path&gt;" class="s3" d=""/>
						</g>
					</g>
					<g id="&lt;Group&gt;">
						<path id="&lt;Path&gt;" class="s3" d="m683 585v96.3"/>
						<path id="&lt;Path&gt;" class="s3" d="m698.8 585v96.3"/>
						<path id="&lt;Path&gt;" class="s3" d="m714.6 585v96.3"/>
						<path id="&lt;Path&gt;" class="s3" d="m730.4 585v96.3"/>
						<path id="&lt;Path&gt;" class="s3" d="m746.3 585v96.3"/>
					</g>
				</g>
				<g id="&lt;Group&gt;">
					<g id="&lt;Group&gt;">
						<path id="&lt;Path&gt;" class="s1" d="m864.3 689.3v-112.3h150.8v112.3z"/>
					</g>
					<g id="&lt;Group&gt;">
						<g id="&lt;Group&gt;">
							<g id="&lt;Group&gt;">
								<path id="&lt;Path&gt;" class="s2" d="m772.5 689.3v-112.3h91.8v112.3z"/>
							</g>
						</g>
						<g id="&lt;Group&gt;">
							<path id="&lt;Path&gt;" class="s3" d=""/>
						</g>
					</g>
					<g id="&lt;Group&gt;">
						<path id="&lt;Path&gt;" class="s3" d="m786.7 585v96.3"/>
						<path id="&lt;Path&gt;" class="s3" d="m802.6 585v96.3"/>
						<path id="&lt;Path&gt;" class="s3" d="m818.4 585v96.3"/>
						<path id="&lt;Path&gt;" class="s3" d="m834.2 585v96.3"/>
						<path id="&lt;Path&gt;" class="s3" d="m850 585v96.3"/>
					</g>
				</g>
				<g id="&lt;Group&gt;">
					<g id="&lt;Group&gt;">
						<path id="&lt;Path&gt;" class="s1" d="m553 577v-112.3h150.8v112.3z"/>
					</g>
					<g id="&lt;Group&gt;">
						<g id="&lt;Group&gt;">
							<g id="&lt;Group&gt;">
								<path id="&lt;Path&gt;" class="s2" d="m461.2 577v-112.3h91.8v112.3z"/>
							</g>
						</g>
						<g id="&lt;Group&gt;">
							<path id="&lt;Path&gt;" class="s3" d=""/>
						</g>
					</g>
					<g id="&lt;Group&gt;">
						<path id="&lt;Path&gt;" class="s3" d="m475.5 472.7v96.3"/>
						<path id="&lt;Path&gt;" class="s3" d="m491.3 472.7v96.3"/>
						<path id="&lt;Path&gt;" class="s3" d="m507.1 472.7v96.3"/>
						<path id="&lt;Path&gt;" class="s3" d="m522.9 472.7v96.3"/>
						<path id="&lt;Path&gt;" class="s3" d="m538.8 472.7v96.3"/>
					</g>
				</g>
				<g id="&lt;Group&gt;">
					<g id="&lt;Group&gt;">
						<path id="&lt;Path&gt;" class="s1" d="m656.8 577v-112.3h150.8v112.3z"/>
					</g>
					<g id="&lt;Group&gt;">
						<g id="&lt;Group&gt;">
							<g id="&lt;Group&gt;">
								<path id="&lt;Path&gt;" class="s4" d="m565 577v-112.3h91.8v112.3z"/>
							</g>
						</g>
						<g id="&lt;Group&gt;">
							<path id="&lt;Path&gt;" class="s3" d=""/>
						</g>
					</g>
					<g id="&lt;Group&gt;">
						<path id="&lt;Path&gt;" class="s3" d="m579.2 472.7v96.3"/>
						<path id="&lt;Path&gt;" class="s3" d="m595 472.7v96.3"/>
						<path id="&lt;Path&gt;" class="s3" d="m610.9 472.7v96.3"/>
						<path id="&lt;Path&gt;" class="s3" d="m626.7 472.7v96.3"/>
						<path id="&lt;Path&gt;" class="s3" d="m642.5 472.7v96.3"/>
					</g>
				</g>
				<g id="&lt;Group&gt;">
					<g id="&lt;Group&gt;">
						<path id="&lt;Path&gt;" class="s1" d="m760.5 577v-112.3h150.8v112.3z"/>
					</g>
					<g id="&lt;Group&gt;">
						<g id="&lt;Group&gt;">
							<g id="&lt;Group&gt;">
								<path id="&lt;Path&gt;" class="s4" d="m668.7 577v-112.3h91.8v112.3z"/>
							</g>
						</g>
						<g id="&lt;Group&gt;">
							<path id="&lt;Path&gt;" class="s3" d=""/>
						</g>
					</g>
					<g id="&lt;Group&gt;">
						<path id="&lt;Path&gt;" class="s3" d="m683 472.7v96.3"/>
						<path id="&lt;Path&gt;" class="s3" d="m698.8 472.7v96.3"/>
						<path id="&lt;Path&gt;" class="s3" d="m714.6 472.7v96.3"/>
						<path id="&lt;Path&gt;" class="s3" d="m730.4 472.7v96.3"/>
						<path id="&lt;Path&gt;" class="s3" d="m746.3 472.7v96.3"/>
					</g>
				</g>
				<g id="&lt;Group&gt;">
					<g id="&lt;Group&gt;">
						<path id="&lt;Path&gt;" class="s1" d="m864.3 577v-112.3h150.8v112.3z"/>
					</g>
					<g id="&lt;Group&gt;">
						<g id="&lt;Group&gt;">
							<path id="&lt;Path&gt;" class="s5" d="m772.5 577v-112.3h91.8v112.3z"/>
						</g>
						<g id="&lt;Group&gt;">
							<path id="&lt;Path&gt;" class="s3" d=""/>
						</g>
					</g>
					<g id="&lt;Group&gt;">
						<path id="&lt;Path&gt;" class="s3" d="m786.7 472.7v96.3"/>
						<path id="&lt;Path&gt;" class="s3" d="m802.6 472.7v96.3"/>
						<path id="&lt;Path&gt;" class="s3" d="m818.4 472.7v96.3"/>
						<path id="&lt;Path&gt;" class="s3" d="m834.2 472.7v96.3"/>
						<path id="&lt;Path&gt;" class="s3" d="m850 472.7v96.3"/>
					</g>
				</g>
				<g id="&lt;Group&gt;">
					<g id="&lt;Group&gt;">
						<path id="&lt;Path&gt;" class="s1" d="m692.9 464.7v-112.4h150.8v112.4z"/>
					</g>
					<g id="&lt;Group&gt;">
						<g id="&lt;Group&gt;">
							<g id="&lt;Group&gt;">
								<g id="&lt;Group&gt;">
									<path id="&lt;Path&gt;" class="s2" d="m601.1 464.7v-112.4h91.8v112.4z"/>
								</g>
							</g>
						</g>
						<g id="&lt;Group&gt;">
							<path id="&lt;Path&gt;" class="s3" d=""/>
						</g>
					</g>
					<g id="&lt;Group&gt;">
						<path id="&lt;Path&gt;" class="s3" d="m615.4 360.3v96.4"/>
						<path id="&lt;Path&gt;" class="s3" d="m631.2 360.3v96.4"/>
						<path id="&lt;Path&gt;" class="s3" d="m647 360.3v96.4"/>
						<path id="&lt;Path&gt;" class="s3" d="m662.8 360.3v96.4"/>
						<path id="&lt;Path&gt;" class="s3" d="m678.7 360.3v96.4"/>
					</g>
				</g>
				<g id="&lt;Group&gt;">
					<g id="&lt;Group&gt;">
						<path id="&lt;Path&gt;" class="s1" d="m331.3 464.7v-112.4h150.8v112.4z"/>
					</g>
					<g id="&lt;Group&gt;">
						<g id="&lt;Group&gt;">
							<g id="&lt;Group&gt;">
								<g id="&lt;Group&gt;">
									<path id="&lt;Path&gt;" class="s2" d="m239.5 464.7v-112.4h91.8v112.4z"/>
								</g>
							</g>
						</g>
						<g id="&lt;Group&gt;">
							<path id="&lt;Path&gt;" class="s3" d=""/>
						</g>
					</g>
					<g id="&lt;Group&gt;">
						<path id="&lt;Path&gt;" class="s3" d="m253.7 360.3v96.4"/>
						<path id="&lt;Path&gt;" class="s3" d="m269.5 360.3v96.4"/>
						<path id="&lt;Path&gt;" class="s3" d="m285.4 360.3v96.4"/>
						<path id="&lt;Path&gt;" class="s3" d="m301.2 360.3v96.4"/>
						<path id="&lt;Path&gt;" class="s3" d="m317 360.3v96.4"/>
					</g>
				</g>
				<g id="&lt;Group&gt;">
					<g id="&lt;Group&gt;">
						<path id="&lt;Path&gt;" class="s1" d="m796.7 464.7v-112.4h150.8v112.4z"/>
					</g>
					<g id="&lt;Group&gt;">
						<g id="&lt;Group&gt;">
							<g id="&lt;Group&gt;">
								<g id="&lt;Group&gt;">
									<path id="&lt;Path&gt;" class="s2" d="m704.9 464.7v-112.4h91.8v112.4z"/>
								</g>
							</g>
						</g>
						<g id="&lt;Group&gt;">
							<path id="&lt;Path&gt;" class="s3" d=""/>
						</g>
					</g>
					<g id="&lt;Group&gt;">
						<path id="&lt;Path&gt;" class="s3" d="m719.1 360.3v96.4"/>
						<path id="&lt;Path&gt;" class="s3" d="m734.9 360.3v96.4"/>
						<path id="&lt;Path&gt;" class="s3" d="m750.8 360.3v96.4"/>
						<path id="&lt;Path&gt;" class="s3" d="m766.6 360.3v96.4"/>
						<path id="&lt;Path&gt;" class="s3" d="m782.4 360.3v96.4"/>
					</g>
				</g>
			</g>
			<g id="&lt;Group&gt;">
				<g id="&lt;Group&gt;">
					<g id="&lt;Group&gt;">
						<path id="&lt;Path&gt;" class="s1" d="m1242.9 456.2l-9.1-0.2 4.1-93h3.8z"/>
						<path id="&lt;Path&gt;" class="s1" d="m1277.2 374.8l-75.4-1.2 0.1-2.1 75.3 1.2z"/>
						<path id="&lt;Path&gt;" class="s1" d="m1266.2 395.1l-54-0.8 0.1-2.1 53.9 0.8z"/>
					</g>
					<g id="&lt;Group&gt;">
						<path id="&lt;Path&gt;" class="s1" d="m1077.8 568.3l-12.5-0.2 6.6-194.5 5.3 0.1z"/>
						<path id="&lt;Path&gt;" class="s1" d="m1125.7 397.9l-103.2-1.6v-4.4l103.3 1.5z"/>
						<path id="&lt;Path&gt;" class="s1" d="m1110.4 440.5l-73.9-1.1v-4.4l73.9 1.1z"/>
					</g>
				</g>
				<g id="&lt;Group&gt;">
					<g id="&lt;Group&gt;">
						<path id="&lt;Path&gt;" class="s6" d="m1332.1 460.3v217.3h-444.8c41.9-54 95.7-126.3 129.6-126.3 40.7 0 118.4 0 118.4 0l71.7-91c71.4 0 125.1 0 125.1 0z"/>
					</g>
					<path id="&lt;Path&gt;" class="s6" d="m1332.1 460.3h-171.7v-12.2h171.7z"/>
				</g>
				<g id="&lt;Group&gt;">
					<g id="&lt;Group&gt;">
						<path id="&lt;Path&gt;" class="s1" d="m1303.8 480.2v50h-151.9l39.5-50z"/>
					</g>
					<g id="&lt;Group&gt;">
						<path id="&lt;Path&gt;" class="s0" d="m1290.2 480.2c-1.9 3.4-3.9 6.1-5.9 7.5-9.9 6.9-26.4 7.2-21.8 26.5 1.1 4.5 0.5 10.1-0.9 16h-18c2.7-6.8 4.2-13.2 3.4-17.7-3.1-16.6 14.8-21 21.3-28.2 0.8-0.9 1.6-2.3 2.4-4.1z"/>
						<path id="&lt;Path&gt;" class="s0" d="m1231.2 480.2q-1.2 1.5-2.5 2.4c-9.9 7-26.4 7.3-21.9 26.5 1.4 5.7 0.2 13.3-2.3 21.1h-18.7c3.9-8.6 6.5-17.1 5.5-22.8-2.9-15.9 13.3-20.6 20.4-27.2z"/>
					</g>
					<g id="&lt;Group&gt;">
						<path id="&lt;Path&gt;" class="s3" d="m1239.4 480.2v50"/>
					</g>
				</g>
				<g id="&lt;Group&gt;">
					<path id="&lt;Path&gt;" class="s3" d="m1135.3 551.3h196.8"/>
				</g>
				<g id="&lt;Group&gt;">
					<path id="&lt;Path&gt;" class="s1" d="m1058.1 597.2h-50.1v-12.2h50.1z"/>
					<path id="&lt;Path&gt;" class="s1" d="m1159 597.2h-50.1v-12.2h50.1z"/>
					<path id="&lt;Path&gt;" class="s1" d="m1259.9 597.2h-50.1v-12.2h50.1z"/>
					<path id="&lt;Path&gt;" class="s1" d="m1332.1 597.2h-21.4v-12.2h21.4z"/>
				</g>
			</g>
			<g id="&lt;Group&gt;">
				<g id="&lt;Group&gt;">
					<path id="&lt;Path&gt;" class="s1" d="m1411.4 650.4c0 62.6-18.5 105.4-106.4 139.2-27.1 10.4-46.9 23.9-63.2 37.6-36.7 30.6-56.5 62.1-104.7 62.1-69.9 0-987.3 0-987.3 0 0-32.3 36.1-43.3 47.3-57.1 2.7-3.2 3.9-6.7 3-10.5-5.6-23.1-27.1-54.9-81.6-72-80.7-25.3-66.3-59.8-66.3-59.8 0 0 658.7 0 738.8 0 80.2 0 160.3-50 225-50 64.8 0 395.4-9 395.4 10.5z"/>
					<g id="&lt;Group&gt;">
						<path id="&lt;Path&gt;" class="s5" d="m1241.8 827.2c-36.7 30.6-56.5 62.1-104.7 62.1-69.9 0-987.3 0-987.3 0 0-32.3 36.1-43.3 47.3-57.1 41.6-16.7 320.4-5 499-5z"/>
					</g>
				</g>
				<g id="&lt;Group&gt;">
					<path id="&lt;Path&gt;" class="s3" d="m1411.4 666c-135.3-12.8-339.5 0-398.8 0-59.4 0-118.7 54.8-201.8 54.8-83 0-747 0-747 0"/>
					<path id="&lt;Path&gt;" class="s3" d="m1383.1 663.7c0 0-11.1 65.9-69.3 86.5-58.3 20.6-155.8 75.6-187 137.4"/>
				</g>
				<g id="&lt;Group&gt;">
					<g id="&lt;Group&gt;">
						<g id="&lt;Group&gt;">
							<path id="&lt;Path&gt;" class="s4" d="m1374.2 708.3c-3.5 7-9.7 11-13.7 8.9-4-2-4.4-9.3-0.9-16.3 3.5-7 9.7-11 13.7-8.9 4 2 4.4 9.3 0.9 16.3z"/>
						</g>
					</g>
				</g>
			</g>
			<g id="&lt;Group&gt;">
				<g id="&lt;Group&gt;">
					<path id="&lt;Path&gt;" class="s7" d="m1030.2 643.6v-28.5"/>
					<path id="&lt;Path&gt;" class="s7" d="m1146.6 643.7v-28.6"/>
					<path id="&lt;Path&gt;" class="s7" d="m1263.1 643.3v-28.6"/>
					<path id="&lt;Path&gt;" class="s7" d="m1379.5 643.3v-28.6"/>
					<path id="&lt;Path&gt;" class="s7" d="m998.3 615.1l413.1-0.6"/>
					<path id="&lt;Path&gt;" class="s7" d="m998.3 627l413.1-0.6"/>
					<path id="&lt;Path&gt;" class="s7" d="m1402.9 615.1v30.5"/>
				</g>
				<g id="&lt;Group&gt;">
					<path id="&lt;Path&gt;" class="s7" d="m87.7 689.8v-28.5"/>
					<path id="&lt;Path&gt;" class="s7" d="m173.1 689.8v-28.5"/>
					<path id="&lt;Path&gt;" class="s7" d="m258.5 689.8v-28.5"/>
					<path id="&lt;Path&gt;" class="s7" d="m343.9 689.8v-28.5"/>
					<path id="&lt;Path&gt;" class="s7" d="m429.2 689.8v-28.5"/>
					<path id="&lt;Path&gt;" class="s7" d="m514.6 689.8v-28.5"/>
					<path id="&lt;Path&gt;" class="s7" d="m600 689.8v-28.5"/>
					<path id="&lt;Path&gt;" class="s7" d="m685.3 689.8v-28.5"/>
					<path id="&lt;Path&gt;" class="s7" d="m770.7 689.8v-28.5"/>
					<path id="&lt;Path&gt;" class="s7" d="m856.1 689.8v-28.5"/>
					<path id="&lt;Path&gt;" class="s7" d="m939.7 661.6l-883.8-0.6"/>
					<path id="&lt;Path&gt;" class="s7" d="m939.7 673.5l-883.8-0.6"/>
					<path id="&lt;Path&gt;" class="s7" d="m64.3 661.6v27.7"/>
				</g>
			</g>
		</g>
		<g id="&lt;Group&gt;">
			<g id="&lt;Group&gt;">
				<path id="&lt;Path&gt;" class="s6" d="m419.6 889.3c0 0 55.2-26.2 87.5-26.2 32.3 0 65.8 18.2 87.9 18.2 22 0 68.5-11.1 88-6 19.4 5.2 31.6 14 31.6 14z"/>
			</g>
			<path id="&lt;Path&gt;" class="s6" d="m830.6 889.3c0 0 27.7-22.2 56.7-20.7 14.1 0.8 29.6 15.1 45.4 10.3 15.8-4.7 84.6-32.4 113.1-34 28.5-1.6 97.3 35.7 132.2 31.3 34.8-4.4 54.3-20.4 68.3-20 13.9 0.5 49.5 30.6 70.1 26.7 20.6-4 44.3-17.4 59.4-15.8 15 1.5 44.3 22.2 44.3 22.2z"/>
			<path id="&lt;Path&gt;" class="s6" d="m51.2 889.3c0 0-26.7-14.6-21.1-23.3 4.2-6.7 46.5 13.3 46.5 13.3 0 0-13.5-14.2 0-15 13.4-0.8 41.6 17.4 41.6 17.4 0 0-6.6-12.4 4.8-14 11.4-1.6 72.7 21.6 72.7 21.6z"/>
		</g>
		<g id="&lt;Group&gt;">
			<path id="&lt;Path&gt;" class="s8" d="m1439.8 768.6l-19.7-19.7h19.7z"/>
			<path id="&lt;Path&gt;" class="s8" d="m620.9 132.9l-19.7-19.7h19.7z"/>
			<g id="&lt;Group&gt;">
				<path id="&lt;Path&gt;" class="s2" d="m796.6 279.9l-19.7-19.8h19.7z"/>
			</g>
			<g id="&lt;Group&gt;">
				<path id="&lt;Path&gt;" class="s2" d="m489.4 308.9l-13.9-14h27.9z"/>
			</g>
			<g id="&lt;Group&gt;">
				<path id="&lt;Path&gt;" class="s4" d="m128.5 163.6l-19.7 19.7v-19.7z"/>
			</g>
			<g id="&lt;Group&gt;">
				<path id="&lt;Path&gt;" class="s4" d="m1168.6 332.8l-19.7 19.7v-19.7z"/>
			</g>
			<g id="&lt;Group&gt;">
				<path id="&lt;Path&gt;" class="s4" d="m941.6 124.4h-13.7v-13.7h13.7z"/>
			</g>
			<g id="&lt;Group&gt;">
				<path id="&lt;Path&gt;" class="s4" d="m328.2 183.4h-13.7v-13.7h13.7z"/>
			</g>
			<g id="&lt;Group&gt;">
				<path id="&lt;Path&gt;" class="s4" d="m105.5 555.3h-13.7v-13.7h13.7z"/>
			</g>
			<path id="&lt;Path&gt;" class="s8" d="m64.2 482.1l-9.7 9.7-9.7-9.7 9.7-9.7z"/>
			<path id="&lt;Path&gt;" class="s8" d="m1075 291l-9.7 9.7-9.7-9.7 9.7-9.7z"/>
			<path id="&lt;Path&gt;" class="s8" d="m1360.3 142.9l-9.7 9.7-9.7-9.7 9.7-9.7z"/>
			<g id="&lt;Group&gt;">
				<path id="&lt;Path&gt;" class="s2" d="m1303.2 192l-9.7 9.7-9.7-9.7 9.7-9.7z"/>
			</g>
			<g id="&lt;Group&gt;">
				<path id="&lt;Path&gt;" class="s4" d="m538.8 342.6l-9.7 9.7-9.7-9.7 9.7-9.7z"/>
			</g>
			<path id="&lt;Path&gt;" class="s8" d="m1453 467.7l-9.7 9.7-9.7-9.7 9.7-9.7z"/>
			<g id="&lt;Group&gt;">
				<path id="&lt;Path&gt;" class="s5" d="m1386.4 558.1h-13.8v-13.7h13.8z"/>
			</g>
			<g id="&lt;Group&gt;">
				<path id="&lt;Path&gt;" class="s5" d="m542.6 170.5h-13.7v-13.7h13.7z"/>
			</g>
			<g id="&lt;Group&gt;">
				<path id="&lt;Path&gt;" class="s5" d="m137.9 408.5c0 2.2-1.8 4-4 4-2.2 0-4-1.8-4-4 0-2.2 1.8-4 4-4 2.2 0 4 1.8 4 4z"/>
			</g>
			<g id="&lt;Group&gt;">
				<path id="&lt;Path&gt;" class="s4" d="m1370.7 352.1c0 2.2-1.8 4-3.9 4-2.2 0-4-1.8-4-4 0-2.1 1.8-3.9 4-3.9 2.1 0 3.9 1.8 3.9 3.9z"/>
			</g>
			<g id="&lt;Group&gt;">
				<path id="&lt;Path&gt;" class="s4" d="m1443.8 666.9c0 2.2-1.8 3.9-4 3.9-2.2 0-4-1.7-4-3.9 0-2.2 1.8-4 4-4 2.2 0 4 1.8 4 4z"/>
			</g>
			<g id="&lt;Group&gt;">
				<path id="&lt;Path&gt;" class="s5" d="m891 183.8c0 2.2-1.7 3.9-3.9 3.9-2.2 0-4-1.7-4-3.9 0-2.2 1.8-4 4-4 2.2 0 3.9 1.8 3.9 4z"/>
			</g>
			<g id="&lt;Group&gt;">
				<path id="&lt;Path&gt;" class="s2" d="m244.2 244.5c0 2.2-1.8 4-4 4-2.2 0-3.9-1.8-3.9-4 0-2.2 1.7-3.9 3.9-3.9 2.2 0 4 1.7 4 3.9z"/>
			</g>
			<g id="&lt;Group&gt;">
				<path id="&lt;Path&gt;" class="s5" d="m196.8 128.8c0 3.2-2.6 5.7-5.7 5.7-3.2 0-5.8-2.5-5.8-5.7 0-3.2 2.6-5.7 5.8-5.7 3.1 0 5.7 2.5 5.7 5.7z"/>
			</g>
		</g>
		<g id="&lt;Group&gt;">
			<g id="&lt;Group&gt;">
				<path id="&lt;Path&gt;" class="s9" d="m1500 207.8c-60.9 14.3-64 119.9-113.6 120.2-75.4 0.3-143.7-107.7-226-110.1-138.2-4-152.4 108.5-304.3 108.5-235.7 0-213.6-99-408.4-103.8-85.4-2-164.5 100.6-282 103.8-57.6 1.6-165.7-47.6-165.7-47.6"/>
			</g>
			<g id="&lt;Group&gt;">
				<path id="&lt;Path&gt;" class="s1" d="m255 305.6l-4.4-8.9 5.6 2.8 5.5 2.9-1.2 6.1-1.2 6.1z"/>
				<path id="&lt;Path&gt;" class="s1" d="m670.4 293l3.9-9.1 1.5 6 1.5 6-5.4 3.1-5.3 3.2z"/>
				<path id="&lt;Path&gt;" class="s1" d="m1121.8 220.4l-2-9.7 4.7 4.1 4.6 4.2-2.7 5.6-2.7 5.5z"/>
				<path id="&lt;Path&gt;" class="s1" d="m1442.6 265.4l-8.6-5 6.1-0.8 6.2-0.7 2.4 5.7 2.4 5.8z"/>
			</g>
		</g>
	</g>
</svg>
