<svg width="163" height="160" viewBox="0 0 163 160" fill="none" xmlns="http://www.w3.org/2000/svg">
<path d="M154.442 27.0968V127.122H11.8108V27.0968C11.8098 25.7716 12.07 24.4591 12.5766 23.2345C13.0833 22.01 13.8264 20.8973 14.7635 19.9602C15.7006 19.0232 16.8132 18.28 18.0378 17.7734C19.2624 17.2667 20.5748 17.0065 21.9001 17.0076H144.353C147.028 17.0076 149.595 18.0705 151.487 19.9626C153.379 21.8547 154.442 24.421 154.442 27.0968Z" stroke="#DDDDDD" stroke-width="2.98818" stroke-linecap="round" stroke-linejoin="round"/>
<path d="M154.442 27.0968V27.5465H11.8108V27.0968C11.8098 25.7716 12.07 24.4591 12.5766 23.2345C13.0833 22.01 13.8264 20.8973 14.7635 19.9602C15.7006 19.0232 16.8132 18.28 18.0378 17.7734C19.2624 17.2667 20.5748 17.0065 21.9001 17.0076H144.353C147.028 17.0076 149.595 18.0705 151.487 19.9626C153.379 21.8547 154.442 24.421 154.442 27.0968Z" stroke="#DDDDDD" stroke-width="2.98818" stroke-linecap="round" stroke-linejoin="round"/>
<path d="M135.138 22.281C135.138 22.6449 135.03 23.0005 134.828 23.303C134.626 23.6056 134.339 23.8414 134.002 23.9806C133.666 24.1198 133.296 24.1563 132.94 24.0853C132.583 24.0143 132.255 23.8391 131.998 23.5818C131.74 23.3245 131.565 22.9968 131.494 22.6399C131.423 22.2831 131.46 21.9132 131.599 21.577C131.738 21.2409 131.974 20.9536 132.276 20.7514C132.579 20.5493 132.935 20.4414 133.298 20.4414C133.786 20.4414 134.254 20.6352 134.599 20.9802C134.944 21.3252 135.138 21.7931 135.138 22.281Z" fill="#DDDDDD"/>
<path d="M141.123 22.281C141.123 22.6449 141.015 23.0005 140.813 23.303C140.611 23.6056 140.324 23.8414 139.988 23.9806C139.651 24.1198 139.282 24.1563 138.925 24.0853C138.568 24.0143 138.24 23.8391 137.983 23.5818C137.726 23.3245 137.55 22.9968 137.479 22.6399C137.408 22.2831 137.445 21.9132 137.584 21.577C137.723 21.2409 137.959 20.9536 138.262 20.7514C138.564 20.5493 138.92 20.4414 139.284 20.4414C139.772 20.4414 140.239 20.6352 140.584 20.9802C140.929 21.3252 141.123 21.7931 141.123 22.281Z" fill="#DDDDDD"/>
<path d="M147.108 22.281C147.108 22.6449 147 23.0005 146.798 23.303C146.596 23.6056 146.308 23.8414 145.972 23.9806C145.636 24.1198 145.266 24.1563 144.909 24.0853C144.553 24.0143 144.225 23.8391 143.968 23.5818C143.71 23.3245 143.535 22.9968 143.464 22.6399C143.393 22.2831 143.43 21.9132 143.569 21.577C143.708 21.2409 143.944 20.9536 144.246 20.7514C144.549 20.5493 144.904 20.4414 145.268 20.4414C145.756 20.4414 146.224 20.6352 146.569 20.9802C146.914 21.3252 147.108 21.7931 147.108 22.281Z" fill="#DDDDDD"/>
<path d="M14.8525 70.5852C14.4846 66.399 32.9542 58.4765 35.9876 64.5921L29.9863 70.5852C29.9863 70.5852 17.5015 75.5153 14.8525 70.5852Z" fill="#14B661"/>
<path d="M23.9034 40.6772C21.2053 32.3377 21.0173 31.3157 22.8078 30.6698C24.5984 30.0239 29.1606 39.5244 29.6757 40.6772C31.4795 44.3264 32.8699 48.1657 33.8209 52.1237C34.6385 55.8193 35.6605 64.3387 35.8322 66.3909C36.5354 75.0493 22.26 77.6738 21.6386 70.9449C21.0173 64.216 20.9518 62.033 20.9518 62.033C20.9518 62.033 13.5934 62.7362 12.5551 57.2255C11.9068 52.9162 11.6577 48.5562 11.811 44.2011C11.811 44.2011 0.60987 42.3451 1.0105 39.3936C1.41112 36.442 23.3229 42.4106 23.3229 42.4106L23.9034 40.6772Z" fill="#B25E47"/>
<path d="M11.811 44.2011C11.811 44.2011 0.60987 42.3451 1.0105 39.3936C1.41112 36.442 23.3229 42.4106 23.3229 42.4106L23.9034 40.6772C21.2053 32.3377 21.0173 31.3157 22.8078 30.6698C24.5984 30.0239 29.1606 39.5244 29.6757 40.6772" stroke="#914839" stroke-width="1.11146" stroke-linecap="round" stroke-linejoin="round"/>
<path d="M23.3065 42.4105C22.3582 46.0952 22.5203 49.978 23.7726 53.5708" stroke="#914839" stroke-width="1.11146" stroke-linecap="round" stroke-linejoin="round"/>
<path d="M18.0574 36.025C19.8153 36.9407 21.197 37.1369 21.7203 34.6351C22.2436 32.1332 19.8153 32.0514 18.9977 32.1823C17.7467 32.3867 17.3052 35.6244 18.0574 36.025Z" fill="#683F1D"/>
<path d="M18.4091 35.3711C18.0166 36.712 17.7305 38.3881 17.7386 38.339C18.033 38.4862 19.7172 39.0667 19.9789 38.4862C20.2422 37.4632 20.428 36.4219 20.5348 35.3711H18.4091Z" fill="#683F1D"/>
<path d="M16.823 39.1729C15.8991 43.2609 11.157 65.7941 11.0016 66.5299C10.8463 67.2658 11.0507 70.667 11.345 70.7978C11.6394 70.9286 13.2746 68.4922 13.8878 67.2576C14.501 66.023 19.8154 41.3232 20.1506 40.1704C20.9682 37.366 17.428 36.4912 16.823 39.1729Z" fill="#683F1D"/>
<path d="M12.645 51.952C10.3475 52.4835 9.69342 54.6746 11.394 56.13C13.2173 57.6916 17.7059 56.9476 17.9349 54.9935C18.1638 53.0394 14.5582 51.5105 12.645 51.952Z" fill="#B25E47" stroke="#914839" stroke-width="1.11146" stroke-linecap="round" stroke-linejoin="round"/>
<path d="M12.4567 48.3546C10.102 48.0112 9.52149 50.3414 11.2058 52.181C12.89 54.0206 18.4415 54.3967 18.7522 52.2464C19.0629 50.0961 13.8875 48.5672 12.4567 48.3546Z" fill="#B25E47" stroke="#914839" stroke-width="1.11146" stroke-linecap="round" stroke-linejoin="round"/>
<path d="M10.3555 44.3319C13.3153 43.6288 19.7253 47.9784 19.4718 49.3275C19.1611 51.0199 16.1442 51.2815 11.8518 49.4583C7.82915 47.7577 8.90021 44.6753 10.3555 44.3319Z" fill="#B25E47" stroke="#914839" stroke-width="1.11146" stroke-linecap="round" stroke-linejoin="round"/>
<mask id="mask0_115_7" style="mask-type:alpha" maskUnits="userSpaceOnUse" x="11" y="26" width="144" height="102">
<rect x="11.0983" y="26.3854" width="143.143" height="100.963" fill="#F5F5F5"/>
</mask>
<g mask="url(#mask0_115_7)">
<path d="M152.913 76.9787C143.723 76.529 136.111 84.8277 133.756 94.3528C133.683 94.6144 133.625 94.9087 133.568 95.2194C133.315 96.6862 133.14 98.1654 133.045 99.6508C132.064 112.226 132.988 137.261 133.045 137.817C133.086 138.021 126.504 137.817 117.47 137.391C114.134 137.236 110.446 137.064 106.62 136.868C87.1284 135.912 63.982 134.62 63.982 134.62L62.5839 118.995C62.5839 118.995 59.6651 123.901 49.6985 133.557C39.7319 143.213 23.7804 137.817 25.4974 125.708C26.5685 118.104 31.0653 112.536 36.5023 103.232C38.1376 100.346 39.9526 97.1081 41.7432 93.3389C44.1224 88.327 46.4444 83.5277 48.6601 79.2189C49.6331 77.3139 50.5897 75.507 51.5135 73.7982C55.0129 67.3473 58.1525 62.458 60.6789 60.1769C68.2744 53.3091 84.5366 57.2663 88.8699 58.6562C95.337 60.7582 102.047 62.0222 108.836 62.4172C118.451 63.0876 133.045 67.2328 140.78 69.9228C145.25 71.4201 149.366 73.8188 152.872 76.9705L152.913 76.9787Z" fill="#4FE58A"/>
<path d="M159.38 91.254C150.967 82.8082 138.188 79.1208 125.368 90.5509C110.455 103.837 99.0081 106.143 82.2309 86.7409C70.0977 72.7108 65.8788 69.1297 51.5462 73.7982C55.0456 67.3473 58.1852 62.458 60.7116 60.1769C68.3071 53.3091 84.5693 57.2663 88.9025 58.6562C95.3697 60.7582 102.08 62.0222 108.868 62.4172C118.483 63.0876 133.078 67.2328 140.812 69.9228C145.283 71.4201 149.398 73.8188 152.905 76.9705C156.216 79.6195 158.178 84.9258 159.38 91.254Z" fill="#4FE58A"/>
<path d="M48.4314 115.398C43.0925 121.211 38.2522 108.595 36.5189 103.232C38.1541 100.346 39.9692 97.108 41.7598 93.3388C44.139 88.3269 46.461 83.5276 48.6767 79.2188C52.6257 85.2609 47.2868 90.7961 46.9107 93.535C45.9786 100.844 56.1332 107.05 48.4314 115.398Z" fill="#14B661"/>
<path d="M14.8524 70.585C23.1266 72.3265 35.9875 64.592 35.9875 64.592C35.9875 64.592 43.0761 96.2251 44.9239 103.24C46.7717 110.255 58.6106 137.735 35.546 138.863C20.7473 139.583 19.7499 111.449 18.8832 102.185C18.0165 92.9219 14.8524 70.585 14.8524 70.585Z" fill="#4FE58A"/>
<path d="M20.3385 74.1989C26.7076 74.6486 33.8044 70.3643 33.8044 70.3643" stroke="#14B661" stroke-width="1.11146" stroke-linecap="round" stroke-linejoin="round"/>
<path d="M35.9876 64.592C35.9876 64.592 43.0762 96.2251 44.924 103.24C45.9378 107.066 49.9195 116.984 49.5843 125.389" stroke="#14B661" stroke-width="1.11146" stroke-linecap="round" stroke-linejoin="round"/>
<path d="M82.2311 63.8235C86.3191 71.4844 97.3077 78.8428 110.52 68.68C110.52 68.68 111.943 64.4612 111.796 64.4612C111.648 64.4612 84.1034 61.1254 84.1034 61.1254L82.2311 63.8235Z" fill="white"/>
<path d="M93.1052 54.3229C89.7039 53.5544 84.7656 54.4129 81.3644 59.6373C77.9632 64.8618 77.5298 69.1788 77.7261 69.1297C77.9223 69.0807 83.0487 65.8593 85.3952 66.0637C87.9264 66.4938 90.4278 67.0837 92.8844 67.8297L93.1052 54.3229Z" fill="#09051C"/>
<path d="M108.444 55.8519C108.444 55.8519 115.966 55.9009 116.979 61.1745C117.993 66.448 115.205 72.7681 111.796 75.6951C108.386 78.6221 110.267 71.4763 98.0437 68.1241L108.444 55.8519Z" fill="#09051C"/>
<path d="M112.114 62.0165C112.114 62.0165 107.936 68.3693 98.6239 68.5165C89.3114 68.6637 87.5209 63.104 87.5209 63.104C88.5265 60.5857 89.7447 55.2141 90.5215 51.4449C91.012 49.0657 91.3391 47.3569 91.3391 47.3569C91.3391 47.3569 92.8762 32.4438 108.868 33.3432L109.138 35.796L112.114 62.0165Z" fill="#B25E47"/>
<path d="M90.5215 51.5595C91.012 49.1802 91.3391 47.4714 91.3391 47.4714L100.439 43.2036C100.439 43.2036 101.878 53.5953 90.5215 51.5595Z" fill="#914839"/>
<path d="M62.6085 118.995C61.3249 104.278 61.3249 92.4069 61.3249 92.4069" stroke="#14B661" stroke-width="1.11146" stroke-linecap="round" stroke-linejoin="round"/>
</g>
<path d="M123.365 154.717C122.585 154.431 121.842 154.055 121.15 153.596C116.489 150.522 116.089 144.529 117.503 137.392C118.599 131.922 120.773 125.782 122.875 119.764C125.278 112.904 127.633 106.208 128.295 100.853C128.394 100.101 128.451 99.3811 128.475 98.6944C128.596 94.5811 129.349 90.5109 130.707 86.6265C134.55 75.8096 142.971 68.999 152.905 76.9706C156.176 79.6115 158.171 84.9177 159.373 91.246C159.806 93.5026 160.141 95.89 160.419 98.3264C161.335 106.609 161.457 115.496 161.866 122.143C163.869 154.275 156.176 167.095 123.365 154.717Z" fill="#4FE58A"/>
<path d="M159.381 91.2542C152.145 83.9857 141.655 80.2411 130.707 86.6265C134.55 75.8096 142.971 68.999 152.905 76.9706C156.216 79.6197 158.179 84.9259 159.381 91.2542Z" fill="#4FE58A"/>
<path d="M133.078 137.817C133.119 138.021 126.537 137.817 117.503 137.392C114.167 137.236 110.48 137.065 106.653 136.868C100.112 133.917 96.0244 129.649 99.5156 123.533C109.016 106.911 126.496 129.943 127.379 113.46C127.993 102.169 130.732 99.7246 133.045 99.651C132.064 112.226 132.988 137.244 133.078 137.817Z" fill="#14B661"/>
<path d="M135.311 89.4473C134.011 92.7045 133.247 96.1501 133.046 99.651C132.171 112.234 132.989 137.261 133.046 137.817" stroke="#14B661" stroke-width="1.11146" stroke-linecap="round" stroke-linejoin="round"/>
<path d="M123.365 154.717C122.585 154.431 121.842 154.055 121.149 153.596C128.663 155.232 139.897 156.662 144.86 152.435C152.668 145.788 147.705 137.269 152.022 132.576C156.339 127.883 162.561 126.37 160.427 98.3591C161.343 106.641 161.465 115.529 161.874 122.176C163.869 154.275 156.176 167.095 123.365 154.717Z" fill="#14B661"/>
<path d="M104.56 98.3429C105.753 92.9712 99.0163 93.2165 99.0163 93.2165C99.6132 88.2618 93.056 86.8964 91.5434 91.7203C86.2208 90.0851 84.5366 91.7203 83.7598 94.5247L104.56 98.3429Z" fill="#DDDDDD"/>
<path d="M95.476 93.7317C96.3566 93.7317 97.0704 93.0179 97.0704 92.1374C97.0704 91.2568 96.3566 90.543 95.476 90.543C94.5955 90.543 93.8817 91.2568 93.8817 92.1374C93.8817 93.0179 94.5955 93.7317 95.476 93.7317Z" fill="#F9F9F9" stroke="#DDDDDD" stroke-width="1.49409" stroke-linecap="round" stroke-linejoin="round"/>
<path d="M73.6378 90.5511L63.6957 144.464L103.178 152.436L113.782 98.4492L73.6378 90.5511Z" fill="#F9F9F9" stroke="#DDDDDD" stroke-width="1.49409" stroke-linecap="round" stroke-linejoin="round"/>
<path d="M85.8034 126.272C83.7839 131.521 83.6695 137.032 84.5934 138.88C84.5934 138.88 88.3625 139.575 92.1235 129.363L85.8034 126.272Z" fill="#14B661"/>
<path d="M90.9463 116.15C81.9118 113.052 77.5949 111.171 75.9678 110.73C74.3408 110.288 68.4622 109.798 67.522 110.73C67.1071 111.176 66.8235 111.728 66.7023 112.325C66.5811 112.923 66.6271 113.542 66.8352 114.114C67.1459 115.365 66.1484 116.273 66.0176 117.54C65.8868 118.807 67.3993 119.175 67.0805 120.435C66.7616 121.694 65.7723 123.059 66.4591 124.441C67.1459 125.823 65.7723 127.253 67.0805 128.946C68.3886 130.638 81.7074 131.448 84.6263 130.826L90.3495 133.385C90.3495 133.385 100.447 122.977 90.9463 116.15Z" fill="#B25E47"/>
<path d="M75.9351 110.705C74.2999 110.272 68.4295 109.773 67.4892 110.705C67.0744 111.151 66.7907 111.704 66.6696 112.301C66.5484 112.898 66.5944 113.517 66.8024 114.09C67.1131 115.341 66.1157 116.248 65.9848 117.516C65.854 118.783 67.3666 119.151 67.0477 120.41C66.7289 121.669 65.7395 123.035 66.4263 124.416C67.1131 125.798 65.7396 127.229 67.0477 128.921" stroke="#914839" stroke-width="1.11146" stroke-linecap="round" stroke-linejoin="round"/>
<path d="M144.908 152.436C142.562 156.679 136.675 158.731 125.515 155.354C122.498 154.447 119.587 153.498 116.807 152.542C112.196 150.964 107.944 149.345 104.134 147.8C97.4896 145.157 90.9839 142.177 84.6427 138.871C86.3145 137.013 87.6632 134.888 88.6326 132.584C89.242 131.217 89.7423 129.803 90.1289 128.357C91.1711 124.357 91.4485 120.196 90.9465 116.093C92.4672 116.551 94.1024 117.014 95.8521 117.483C100.014 118.619 104.674 119.805 109.4 121.048C123.561 124.776 138.286 129.052 141.875 134.366C142.202 134.849 142.513 135.348 142.807 135.855C142.922 136.051 143.044 136.255 143.15 136.46C143.184 136.512 143.214 136.567 143.24 136.623C143.371 136.86 143.502 137.114 143.625 137.359C143.848 137.789 144.053 138.223 144.238 138.659C146.29 143.524 146.887 148.789 144.908 152.436Z" fill="#4FE58A"/>
<path d="M90.9465 116.15C107.16 121.056 136.561 126.607 141.842 134.424C142.755 135.782 143.546 137.218 144.205 138.716" stroke="#14B661" stroke-width="1.11146" stroke-linecap="round" stroke-linejoin="round"/>
<path d="M95.7868 117.516C96.7924 127.678 91.5434 137.433 91.5434 137.433" stroke="#14B661" stroke-width="1.11146" stroke-linecap="round" stroke-linejoin="round"/>
<path d="M144.859 152.436C142.513 156.679 136.626 158.731 125.466 155.354C122.449 154.447 119.538 153.498 116.758 152.542C123.291 154.267 138.776 157.619 144.859 152.436Z" fill="#14B661"/>
<path d="M108.869 33.4332L109.147 35.8861C103.481 44.708 95.746 47.4715 91.3391 47.4715C84.0625 45.6564 81.577 39.1074 81.1518 32.0842C81.0425 30.4019 81.037 28.7144 81.1355 27.0314C81.4778 22.2652 82.2996 17.5456 83.5883 12.9441C83.5883 12.9441 105.443 2.77311 106.955 23.1887C106.955 23.1887 111.64 22.3711 112.515 27.5465C113.194 31.8471 108.869 33.4332 108.869 33.4332Z" fill="#B25E47"/>
<path d="M84.6432 27.0561C85.1264 27.0561 85.5181 26.6644 85.5181 26.1812C85.5181 25.6981 85.1264 25.3064 84.6432 25.3064C84.1601 25.3064 83.7684 25.6981 83.7684 26.1812C83.7684 26.6644 84.1601 27.0561 84.6432 27.0561Z" fill="#683F1D"/>
<path d="M90.7261 25.9441C91.2093 25.9441 91.601 25.5524 91.601 25.0692C91.601 24.5861 91.2093 24.1944 90.7261 24.1944C90.243 24.1944 89.8513 24.5861 89.8513 25.0692C89.8513 25.5524 90.243 25.9441 90.7261 25.9441Z" fill="#683F1D"/>
<path d="M89.3936 20.3762C89.4917 21.5618 93.5633 22.0114 93.7923 21.3492C94.1438 20.3272 89.181 17.58 89.3936 20.3762Z" fill="#683F1D"/>
<path d="M81.6346 22.1258C81.6346 22.7717 86.066 23.0742 85.9024 20.7849C85.7962 19.1579 81.7327 20.3598 81.6346 22.1258Z" fill="#683F1D"/>
<path d="M105.77 29.6395C107.594 26.9414 110.48 27.2357 110.782 27.7508" stroke="#914839" stroke-width="1.11146" stroke-linecap="round" stroke-linejoin="round"/>
<path d="M106.547 28.7157C109.237 27.1377 110.7 30.678 107.299 30.678" stroke="#914839" stroke-width="1.11146" stroke-linecap="round" stroke-linejoin="round"/>
<path d="M86.9978 23.6467C87.7336 25.0775 87.6764 25.936 87.1858 26.8599C86.6953 27.7837 85.2154 29.8686 85.9921 31.7164" stroke="#914839" stroke-width="1.11146" stroke-linecap="round" stroke-linejoin="round"/>
<path d="M91.7644 32.0353C91.1185 34.251 88.494 35.6409 87.2267 35.3548C87.2267 35.3548 88.494 38.7969 90.7261 37.9139C93.2933 36.9082 91.7644 32.0353 91.7644 32.0353Z" fill="white" stroke="#914839" stroke-width="1.11146" stroke-linecap="round" stroke-linejoin="round"/>
<path d="M105.369 32.7956C105.875 33.1429 106.448 33.3794 107.051 33.4893C107.654 33.5992 108.273 33.5801 108.869 33.4333" stroke="#914839" stroke-width="1.11146" stroke-linecap="round" stroke-linejoin="round"/>
<path d="M113.308 21.0793C115.827 24.5296 112.049 25.9849 112.049 25.9849C111.663 25.4321 111.157 24.9737 110.569 24.644C110.198 24.4257 109.782 24.2928 109.353 24.2552C108.923 24.2175 108.491 24.276 108.087 24.4263C107.683 24.5766 107.318 24.815 107.017 25.1242C106.717 25.4334 106.489 25.8056 106.351 26.2138C101.208 26.3201 103.424 22.3057 103.424 22.3057C98.8123 24.1453 98.6651 19.4277 100.652 17.2938C97.0544 21.3327 92.4759 17.2938 93.2281 13.6554C91.9526 17.629 87.4149 17.7435 88.0199 14.473C87.63 15.1527 87.1577 15.7815 86.6136 16.3454C83.4904 19.4768 80.7024 16.1246 81.8715 13.6473C77.1948 18.1032 75.1672 13.1158 79.6313 10.4341C76.0993 7.53977 80.269 3.41905 83.1225 5.52847C82.4766 0.402093 87.7583 0.173163 90.0803 3.16559C90.996 -2.4677 98.0437 0.606493 98.3299 3.28006C103.522 -0.350104 107.544 2.33164 107.021 8.22656C109.122 5.42218 113.619 7.06556 111.927 14.2605C116.203 13.9498 116.947 19.3214 113.308 21.0793Z" fill="#683F1D"/>
<path d="M110.569 24.6442C110.198 24.4258 109.782 24.293 109.353 24.2553C108.923 24.2176 108.491 24.2761 108.087 24.4264C107.683 24.5767 107.317 24.8152 107.017 25.1244C106.717 25.4336 106.489 25.8058 106.351 26.214C101.208 26.3202 103.424 22.3058 103.424 22.3058C98.8122 24.1454 98.665 19.4279 100.652 17.2939C97.0544 21.3329 92.4758 17.2939 93.228 13.6556C91.9525 17.6291 87.4148 17.7436 88.0199 14.4732C87.63 15.1528 87.1576 15.7816 86.6136 16.3455C85.3545 12.5273 88.1752 7.49084 92.484 9.80466C93.0481 6.73864 100.096 4.75187 100.055 12.5191C102.663 8.87259 108.566 10.1235 105.778 17.065C107.969 15.3317 113.022 18.1769 110.569 24.6442Z" fill="#683F1D"/>
<path d="M101.11 25.9931C101.731 27.2359 100.562 29.0836 98.4934 30.122C96.4249 31.1603 94.2419 30.9396 93.5878 29.7377C92.9337 28.5358 94.1356 26.6472 96.2041 25.6088C98.2727 24.5705 100.48 24.7503 101.11 25.9931Z" fill="#914839"/>
<path d="M83.8665 30.727C83.5476 31.61 82.4684 32.0842 81.1357 32.0597C81.0328 30.3852 81.0328 28.7059 81.1357 27.0314C83.1143 27.8981 84.3244 29.4842 83.8665 30.727Z" fill="#914839"/>
</svg>
